<svg width="16" height="16" viewBox="0 0 16 16" fill="none" xmlns="http://www.w3.org/2000/svg">
<path d="M8 14C11.3137 14 14 11.3137 14 8C14 4.68629 11.3137 2 8 2C4.68629 2 2 4.68629 2 8C2 11.3137 4.68629 14 8 14Z" fill="#2DBC60"/>
<path d="M9.78442 5.94203C10.0271 5.60634 10.4959 5.53092 10.8316 5.77357C11.1673 6.01623 11.2427 6.48508 11.0001 6.82077L8.39752 10.3963C8.14605 10.7442 7.65445 10.8104 7.31986 10.5415L5.28093 8.90288C4.95806 8.6434 4.90668 8.17131 5.16616 7.84845C5.42564 7.52558 5.89772 7.47419 6.22059 7.73367L7.64427 8.87785L9.78442 5.94203Z" fill="white"/>
</svg>
