<svg version="1.1" xmlns="http://www.w3.org/2000/svg" width="24" height="24" viewBox="-56 -22 1150 1150">
    <title/>
    <g id="icomoon-ignore">
    </g>
    <style type='text/css'>
        .white{fill:#white}
    </style>
    <path fill="#25af9b" d="M937.265 809.566c-144.461-55.83-304.836-125.153-318.31-168.34v-45.318c29.965-30.652 53.609-73.405 67.589-123.473 18.586-13.059 30.85-35.059 30.85-60.039 0-17.737-6.43-33.794-16.708-46.42v-101.437c0-104.725-58.323-176.413-191.622-176.413-129.867 0-191.694 71.689-191.694 176.413v101.473c-10.223 12.589-16.671 28.647-16.671 46.384 0 24.962 12.228 46.944 30.814 60.021 13.98 50.068 37.642 92.84 67.625 123.491v45.3c-13.438 43.151-173.849 112.491-318.31 168.34-12.318 4.786-20.464 16.762-20.464 30.146v113.322c0 17.791 14.233 32.259 31.789 32.259h833.787c17.556 0 31.789-14.468 31.789-32.259v-113.304c0-13.402-8.146-25.414-20.464-30.146z"/>
</svg>