<svg xmlns="http://www.w3.org/2000/svg" width="12" height="12" viewBox="0 0 12 12">
    <path fill="#D0021B" fill-rule="nonzero" d="M11.78 3.295L8.705.22A.75.75 0 0 0 8.173 0H3.826a.748.748 0 0 0-.53.22L.22 3.295a.744.744 0 0 0-.22.53v4.35c0 .199.079.39.22.53l3.075 3.076c.14.14.331.219.53.219h4.35c.199 0 .39-.079.53-.22l3.075-3.076c.141-.14.22-.33.22-.53V3.826a.748.748 0 0 0-.22-.53zM6 10a1 1 0 1 1 0-2 1 1 0 0 1 0 2zm1-3.625C7 6.72 6.552 7 6 7s-1-.28-1-.625v-3.75C5 2.28 5.448 2 6 2s1 .28 1 .625v3.75z"/>
</svg>
