<svg width="37" height="26" viewBox="0 0 37 26" fill="none" xmlns="http://www.w3.org/2000/svg">
<path d="M5.08525 12.7975L7.8565 13.945M20.5 18.25C20.5 18.8467 20.2629 19.419 19.841 19.841C19.419 20.2629 18.8467 20.5 18.25 20.5C17.6533 20.5 17.081 20.2629 16.659 19.841C16.2371 19.419 16 18.8467 16 18.25C16 17.6533 16.2371 17.081 16.659 16.659C17.081 16.2371 17.6533 16 18.25 16C18.8467 16 19.419 16.2371 19.841 16.659C20.2629 17.081 20.5 17.6533 20.5 18.25V18.25ZM19.84 16.66L27.265 9.235L19.84 16.66ZM4 19H7H4ZM32.5 19.0015L29.5 19L32.5 19.0015ZM31.4148 12.7975L28.6427 13.945L31.4148 12.7975ZM23.7025 5.08525L22.555 7.8565L23.7025 5.08525ZM18.25 4V7V4ZM12.7975 5.08525L13.945 7.8565L12.7975 5.08525ZM8.1745 8.173L10.294 10.2955L8.1745 8.173Z" stroke="#818A97" stroke-width="2" stroke-linecap="round" stroke-linejoin="round"/>
<path fill-rule="evenodd" clip-rule="evenodd" d="M18.25 1C8.72275 1 1 8.725 1 18.25V25H35.5V18.25C35.5 8.725 27.7773 1 18.25 1Z" stroke="#818A97" stroke-width="2" stroke-linecap="round" stroke-linejoin="round"/>
</svg>
