<svg width="37" height="37" viewBox="0 0 37 37" fill="none" xmlns="http://www.w3.org/2000/svg">
<path d="M32.1957 26.1087L27.5924 30.6739L24.587 27.6228" stroke="#818A97" stroke-width="2" stroke-linecap="round"/>
<path d="M11.6522 18.048V22.3044L4.02826 25.026C3.14187 25.3429 2.37513 25.9261 1.83302 26.6956C1.29091 27.4652 0.99996 28.3836 1 29.3249V32.9565H17.7391M19.2609 22.3044V17.9522V22.3044Z" stroke="#818A97" stroke-width="2"/>
<path fill-rule="evenodd" clip-rule="evenodd" d="M23.047 10.1304C23.047 15.1727 19.6413 19.2609 15.4383 19.2609C11.2367 19.2609 7.82957 15.1727 7.82957 10.1304C7.82957 5.08815 11.2367 1 15.4383 1C19.6413 1 23.047 5.08815 23.047 10.1304Z" stroke="#818A97" stroke-width="2"/>
<path fill-rule="evenodd" clip-rule="evenodd" d="M23.018 9.32237C22.7624 9.35281 22.5463 9.31933 22.2876 9.36802C19.6946 9.8702 18.0298 8.92976 16.6039 6.43335C15.7479 8.07683 13.072 9.37031 10.8746 9.37031C9.84648 9.37848 8.83295 9.12726 7.92771 8.63987L23.018 9.32237ZM36 28.3913C36 32.5936 32.5928 36 28.3913 36C24.1883 36 20.7826 32.5936 20.7826 28.3913C20.7826 24.189 24.1883 20.7826 28.3913 20.7826C32.5928 20.7826 36 24.189 36 28.3913Z" stroke="#818A97" stroke-width="2"/>
</svg>
