<svg version="1.1" id="Layer_1" xmlns="http://www.w3.org/2000/svg" xmlns:xlink="http://www.w3.org/1999/xlink" width="24" height="24" viewBox="0 0 1024 1024" style="enable-background:new 0 0 1024 1024;" xml:space="preserve">
		<style type="text/css">
			.st0{display:none;}
			.st1{display:inline;fill:#6F45FF;stroke:#000000;stroke-miterlimit:10;}
			.st2{fill:white;}
			.white {fill: white;}
		</style>
    <path class="st2" d="M858.1,858.1v-445H512V116.5H165.9v741.6h-49.4v49.4h791v-49.4H858.1L858.1,858.1z M215.4,165.9h98.9v98.9   h-98.9V165.9z M215.4,314.2h98.9v98.9h-98.9V314.2z M215.4,462.6h98.9v98.9h-98.9V462.6L215.4,462.6z M215.4,610.9h98.9v98.9h-98.9   V610.9z M413.1,858.1H264.8v-98.9h148.3L413.1,858.1L413.1,858.1z M462.6,709.8h-98.9v-98.9h98.9V709.8z M462.6,561.4h-98.9v-98.9   h98.9V561.4z M462.6,413.1h-98.9v-98.9h98.9V413.1z M462.6,264.8h-98.9v-98.9h98.9V264.8z M561.4,462.6h98.9v98.9h-98.9V462.6   L561.4,462.6z M561.4,610.9h98.9v98.9h-98.9V610.9z M759.2,858.1H610.9v-98.9h148.3V858.1z M808.6,709.8h-98.9v-98.9h98.9V709.8z    M808.6,561.4h-98.9v-98.9h98.9V561.4z"/>
</svg>